<svg xmlns="http://www.w3.org/2000/svg" style="display: none;">
  <symbol id="whatsapp" viewBox="0 0 24 24">
    <path fill="currentColor" d="M12.04 2c-5.46 0-9.91 4.45-9.91 9.91c0 1.75.46 3.45 1.32 4.95L2.05 22l5.25-1.38c1.45.79 3.08 1.21 4.74 1.21c5.46 0 9.91-4.45 9.91-9.91c0-2.65-1.03-5.14-2.9-7.01A9.82 9.82 0 0 0 12.04 2m.01 1.67c2.2 0 4.26.86 5.82 2.42a8.23 8.23 0 0 1 2.41 5.83c0 4.54-3.7 8.23-8.24 8.23c-1.48 0-2.93-.39-4.19-1.15l-.3-.17l-3.12.82l.83-3.04l-.2-.32a8.2 8.2 0 0 1-1.26-4.38c.01-4.54 3.7-8.24 8.25-8.24M8.53 7.33c-.16 0-.43.06-.66.31c-.22.25-.87.86-.87 2.07c0 1.22.89 2.39 1 2.56c.14.17 1.76 2.67 4.25 3.73c.59.27 1.05.42 1.41.53c.59.19 1.13.16 1.56.1c.48-.07 1.46-.6 1.67-1.18s.21-1.07.15-1.18c-.07-.1-.23-.16-.48-.27c-.25-.14-1.47-.74-1.69-.82c-.23-.08-.37-.12-.56.12c-.16.25-.64.81-.78.97c-.15.17-.29.19-.53.07c-.26-.13-1.06-.39-2-1.23c-.74-.66-1.23-1.47-1.38-1.72c-.12-.24-.01-.39.11-.5c.11-.11.27-.29.37-.44c.13-.14.17-.25.25-.41c.08-.17.04-.31-.02-.43c-.06-.11-.56-1.35-.77-1.84c-.2-.48-.4-.42-.56-.43c-.14 0-.3-.01-.47-.01"/>
  </symbol>

  <symbol id="facebook" viewBox="0 0 16 16">
    <path fill="currentColor" d="M16 8.049c0-4.446-3.582-8.05-8-8.05C3.58 0-.002 3.603-.002 8.05c0 4.017 2.926 7.347 6.75 7.951v-5.625h-2.03V8.05H6.75V6.275c0-2.017 1.195-3.131 3.022-3.131c.876 0 1.791.157 1.791.157v1.98h-1.009c-.993 0-1.303.621-1.303 1.258v1.51h2.218l-.354 2.326H9.25V16c3.824-.604 6.75-3.934 6.75-7.951"/>
  </symbol>

  <symbol id="instagram" viewBox="0 0 24 24">
    <path fill="currentColor" d="M7.8 2h8.4C19.4 2 22 4.6 22 7.8v8.4a5.8 5.8 0 0 1-5.8 5.8H7.8C4.6 22 2 19.4 2 16.2V7.8A5.8 5.8 0 0 1 7.8 2m-.2 2A3.6 3.6 0 0 0 4 7.6v8.8C4 18.39 5.61 20 7.6 20h8.8a3.6 3.6 0 0 0 3.6-3.6V7.6C20 5.61 18.39 4 16.4 4zm9.65 1.5a1.25 1.25 0 0 1 1.25 1.25A1.25 1.25 0 0 1 17.25 8A1.25 1.25 0 0 1 16 6.75a1.25 1.25 0 0 1 1.25-1.25M12 7a5 5 0 0 1 5 5a5 5 0 0 1-5 5a5 5 0 0 1-5-5a5 5 0 0 1 5-5m0 2a3 3 0 0 0-3 3a3 3 0 0 0 3 3a3 3 0 0 0 3-3a3 3 0 0 0-3-3"/>
  </symbol>

  <symbol id="tiktok" viewBox="0 0 24 24">
    <path fill="currentColor" d="M20.357 7.75a.537.537 0 0 0-.495-.516a4.7 4.7 0 0 1-2.415-.938a4.85 4.85 0 0 1-1.887-3.3a.54.54 0 0 0-.517-.496h-2.108a.517.517 0 0 0-.517.527v12.59a2.794 2.794 0 0 1-2.974 2.762a2.815 2.815 0 0 1-2.51-3.711A2.836 2.836 0 0 1 9.93 12.78a.506.506 0 0 0 .558-.506V9.807s-.896-.063-1.202-.063a5.27 5.27 0 0 0-4.101 1.93a5.8 5.8 0 0 0-1.37 2.52a5.86 5.86 0 0 0 2.14 6.072A5.93 5.93 0 0 0 9.591 21.5q.451 0 .896-.063A5.95 5.95 0 0 0 13.8 19.78a5.84 5.84 0 0 0 1.75-4.133V8.71a7.84 7.84 0 0 0 4.218 1.613a.517.517 0 0 0 .548-.527V7.751z"/>
  </symbol>

  <symbol id="youtube" viewBox="0 0 24 24">
    <path fill="currentColor" d="M23 9.71a8.5 8.5 0 0 0-.91-4.13a2.92 2.92 0 0 0-1.72-1A78 78 0 0 0 12 4.27a79 79 0 0 0-8.34.3a2.87 2.87 0 0 0-1.46.74c-.9.83-1 2.25-1.1 3.45a48 48 0 0 0 0 6.48a9.6 9.6 0 0 0 .3 2a3.14 3.14 0 0 0 .71 1.36a2.86 2.86 0 0 0 1.49.78a45 45 0 0 0 6.5.33c3.5.05 6.57 0 10.2-.28a2.9 2.9 0 0 0 1.53-.78a2.5 2.5 0 0 0 .61-1a10.6 10.6 0 0 0 .52-3.4c.04-.56.04-3.94.04-4.54M9.74 14.85V8.66l5.92 3.11c-1.66.92-3.85 1.96-5.92 3.08"/>
  </symbol>

  <symbol id="mail" viewBox="0 0 24 24">
    <path fill="currentColor" d="M20 18h-2V9.25L12 13L6 9.25V18H4V6h1.2l6.8 4.25L18.8 6H20m0-2H4c-1.11 0-2 .89-2 2v12a2 2 0 0 0 2 2h16a2 2 0 0 0 2-2V6a2 2 0 0 0-2-2"/>
  </symbol>

  <symbol id="location" viewBox="0 0 24 24">
    <path fill="currentColor" d="M12 2C7.589 2 4 5.589 4 9.995C3.971 16.44 11.696 21.784 12 22c0 0 8.029-5.56 8-12c0-4.411-3.589-8-8-8m0 12c-2.21 0-4-1.79-4-4s1.79-4 4-4s4 1.79 4 4s-1.79 4-4 4"/>
  </symbol>

  <symbol id="phone" viewBox="0 0 24 24">
    <g fill="none"><path d="m12.593 23.258l-.011.002l-.071.035l-.02.004l-.014-.004l-.071-.035q-.016-.005-.024.005l-.004.01l-.017.428l.005.02l.01.013l.104.074l.015.004l.012-.004l.104-.074l.012-.016l.004-.017l-.017-.427q-.004-.016-.017-.018m.265-.113l-.013.002l-.185.093l-.01.01l-.003.011l.018.43l.005.012l.008.007l.201.093q.019.005.029-.008l.004-.014l-.034-.614q-.005-.018-.02-.022m-.715.002a.02.02 0 0 0-.027.006l-.006.014l-.034.614q.001.018.017.024l.015-.002l.201-.093l.01-.008l.004-.011l.017-.43l-.003-.012l-.01-.01z"/><path fill="currentColor" d="M6.857 2.445C8 3.278 8.89 4.415 9.65 5.503l.442.644l.417.615a1.504 1.504 0 0 1-.256 1.986l-1.951 1.449a.48.48 0 0 0-.142.616c.442.803 1.228 1.999 2.128 2.899s2.153 1.738 3.012 2.23a.483.483 0 0 0 .644-.162l1.27-1.933a1.503 1.503 0 0 1 2.056-.332l.663.459c1.239.86 2.57 1.837 3.588 3.14a1.47 1.47 0 0 1 .189 1.484c-.837 1.953-2.955 3.616-5.158 3.535l-.3-.017l-.233-.02l-.258-.03l-.281-.038l-.305-.05l-.16-.03l-.336-.072l-.176-.04l-.366-.094l-.385-.11l-.402-.13c-1.846-.626-4.189-1.856-6.593-4.26s-3.633-4.746-4.259-6.592l-.13-.402l-.11-.385l-.094-.366l-.078-.346a12 12 0 0 1-.063-.326l-.05-.305l-.04-.281l-.029-.258l-.02-.233l-.016-.3c-.081-2.196 1.6-4.329 3.544-5.162a1.47 1.47 0 0 1 1.445.159m8.135 3.595l.116.013a3.5 3.5 0 0 1 2.858 2.96a1 1 0 0 1-1.958.393l-.023-.115a1.5 1.5 0 0 0-1.07-1.233l-.155-.035a1 1 0 0 1 .232-1.983M15 3a6 6 0 0 1 6 6a1 1 0 0 1-1.993.117L19 9a4 4 0 0 0-3.738-3.991L15 5a1 1 0 1 1 0-2"/></g>
  </symbol>

  <symbol id="home" viewBox="0 0 24 24">
    <path fill="currentColor" d="M12 3L2.36 11.23a1 1 0 0 0 .64 1.77h2v7a1 1 0 0 0 1 1h3a1 1 0 0 0 1-1v-4h4v4a1 1 0 0 0 1 1h3a1 1 0 0 0 1-1v-7h2a1 1 0 0 0 .64-1.77L12 3z"/>
  </symbol>

  <symbol id="users" viewBox="0 0 36 36">
    <path fill="currentColor" d="M12 16.14h-.87a8.67 8.67 0 0 0-6.43 2.52l-.24.28v8.28h4.08v-4.7l.55-.62l.25-.29a11 11 0 0 1 4.71-2.86A6.6 6.6 0 0 1 12 16.14"/><path fill="currentColor" d="M31.34 18.63a8.67 8.67 0 0 0-6.43-2.52a11 11 0 0 0-1.09.06a6.6 6.6 0 0 1-2 2.45a10.9 10.9 0 0 1 5 3l.25.28l.54.62v4.71h3.94v-8.32Z"/><path fill="currentColor" d="M11.1 14.19h.31a6.45 6.45 0 0 1 3.11-6.29a4.09 4.09 0 1 0-3.42 6.33Z"/><path fill="currentColor" d="M24.43 13.44a7 7 0 0 1 0 .69a4 4 0 0 0 .58.05h.19A4.09 4.09 0 1 0 21.47 8a6.53 6.53 0 0 1 2.96 5.44"/><circle cx="17.87" cy="13.45" r="4.47" fill="currentColor"/><path fill="currentColor" d="M18.11 20.3A9.7 9.7 0 0 0 11 23l-.25.28v6.33a1.57 1.57 0 0 0 1.6 1.54h11.49a1.57 1.57 0 0 0 1.6-1.54V23.3l-.24-.3a9.58 9.58 0 0 0-7.09-2.7"/></symbol>

  <symbol id="help-circle" viewBox="0 0 24 24">
    <path fill="currentColor" d="M12 2C6.486 2 2 6.486 2 12s4.486 10 10 10s10-4.486 10-10S17.514 2 12 2m1 16h-2v-2h2zm.976-4.885c-.196.158-.385.309-.535.459c-.408.407-.44.777-.441.793v.133h-2v-.167c0-.118.029-1.177 1.026-2.174c.195-.195.437-.393.691-.599c.734-.595 1.216-1.029 1.216-1.627a1.934 1.934 0 0 0-3.867.001h-2C8.066 7.765 9.831 6 12 6s3.934 1.765 3.934 3.934c0 1.597-1.179 2.55-1.958 3.181"/>
  </symbol>

  <symbol id="list" viewBox="0 0 24 24">
    <path fill="currentColor" d="M5 21q-.825 0-1.412-.587T3 19V5q0-.825.588-1.412T5 3h14q.825 0 1.413.588T21 5v14q0 .825-.587 1.413T19 21zm2-4h7v-2H7zm0-4h10v-2H7zm0-4h10V7H7z"/>
  </symbol>

  <symbol id="check-circle" viewBox="0 0 24 24">
    <path fill="currentColor" d="m10.6 13.8l-2.15-2.15q-.275-.275-.7-.275t-.7.275t-.275.7.275.7L9.9 15.9q.3.3.7.3t.7-.3l5.65-5.65q.275-.275.275-.7t-.275-.7t-.7-.275t-.7.275zM12 22q-2.075 0-3.9-.788t-3.175-2.137T2.788 15.9T2 12t.788-3.9t2.137-3.175T8.1 2.788T12 2t3.9.788t3.175 2.137T21.213 8.1T22 12t-.788 3.9t-2.137 3.175t-3.175 2.138T12 22"/>
  </symbol>

  <symbol id="login" viewBox="0 0 24 24">
    <path fill="currentColor" fill-rule="evenodd" d="M3.5 9.568v4.864c0 2.294 0 3.44.722 4.153c.655.647 1.674.706 3.596.712l-.015-.105c-.115-.844-.115-1.916-.115-3.247v-.053c0-.403.331-.73.74-.73c.408 0 .739.327.739.73c0 1.396.001 2.37.101 3.105c.098.714.275 1.093.548 1.362s.656.445 1.379.54c.744.1 1.731.101 3.146.101h.985c1.415 0 2.401-.002 3.146-.101c.723-.096 1.106-.272 1.378-.541c.273-.27.451-.648.548-1.362c.1-.734.102-1.709.102-3.105V8.108c0-1.397-.002-2.37-.102-3.105c-.097-.714-.275-1.093-.547-1.362c-.273-.27-.656-.445-1.38-.54C17.728 3 16.742 3 15.327 3h-.985c-1.415 0-2.402.002-3.146.1c-.723.096-1.106.272-1.379.541c-.273.27-.45.648-.548 1.362c-.1.734-.101 1.708-.101 3.105c0 .403-.331.73-.74.73a.734.734 0 0 1-.739-.73v-.053c0-1.33 0-2.403.115-3.247l.015-.105c-1.922.006-2.94.065-3.596.712c-.722.713-.722 1.86-.722 4.153m9.885 5.38l2.464-2.432a.723.723 0 0 0 0-1.032l-2.464-2.432a.746.746 0 0 0-1.045 0a.723.723 0 0 0 0 1.032l1.202 1.186H6.457a.734.734 0 0 0-.74.73c0 .403.331.73.74.73h7.085l-1.202 1.186a.723.723 0 0 0 0 1.032a.746.746 0 0 0 1.045 0" clip-rule="evenodd"/>
  </symbol>

  <symbol id="user" viewBox="0 0 24 24">
    <path fill="currentColor" d="M12 4a4 4 0 1 1 0 8a4 4 0 0 1 0-8m0 16s8 0 8-2c0-2.4-3.9-5-8-5s-8 2.6-8 5c0 2 8 2 8 2"/>
  </symbol>

  <symbol id="refresh" viewBox="0 0 64 64">
    <path fill="currentColor" d="M8.4 29c.3 0 .7-.1 1-.2l11.1-3.9c1.2-.4 1.8-1.7 1.4-2.9s-1.7-1.8-2.9-1.4L12.1 23c3.3-8.6 11.7-14.4 21.3-14.4c10.5 0 19.6 7 22.2 17c.3 1.2 1.5 1.9 2.7 1.6s1.9-1.5 1.6-2.7c-3.1-12-14-20.4-26.6-20.4c-11.2 0-21.1 6.6-25.2 16.5l-2.1-6c-.4-1.2-1.7-1.8-2.9-1.4s-1.8 1.7-1.4 2.9L5.5 27c.6 1.3 1.7 2 2.9 2m53.7 20.7L58 39c-.3-.7-.8-1.3-1.5-1.6s-1.5-.3-2.2 0l-11 4.2c-1.2.4-1.7 1.7-1.3 2.9s1.7 1.7 2.9 1.3l6.9-2.6c-4 7.3-11.8 12.1-20.5 12.1c-9.9 0-18.6-6.2-21.7-15.4c-.4-1.2-1.7-1.8-2.8-1.4c-1.2.4-1.8 1.7-1.4 2.8c3.7 11 14.1 18.4 25.9 18.4c10.3 0 19.6-5.7 24.3-14.5l2.3 6.1c.3.9 1.2 1.4 2.1 1.4c.3 0 .5 0 .8-.2c1.2-.3 1.7-1.6 1.3-2.8"/>
  </symbol>

  <symbol id="icon-hand-coin" viewBox="0 0 24 24">
    <g fill="none" stroke="currentColor" stroke-linecap="round" stroke-linejoin="round" stroke-width="1.5">
      <path d="M17.191 4.155h-1.668a1.1 1.1 0 0 0-.409 2.123l1.693.677a1.1 1.1 0 0 1-.407 2.122h-1.67m1.231-4.922V2.963m0 7.178V9.077"/>
      <path d="M10.321 6.616a5.64 5.64 0 1 0 11.28 0a5.64 5.64 0 0 0-11.28 0M15.2 17.42l6.217-1.986l.043-.012a1.474 1.474 0 0 1 .989 2.751c-12.137 6.284-9.041 6-21.7 1.783"/>
      <path d="M.75 12.256h2.2a10.62 10.62 0 0 1 6.986 2.528l.041.036h4.1a1.542 1.542 0 0 1 .008 3.085l-6.234.031"/>
    </g>
  </symbol>

  <symbol id="shield-check" viewBox="0 0 24 24">
    <path fill="currentColor" d="M12 12h7c-.53 4.11-3.28 7.78-7 8.92zH5V6.3l7-3.11M12 1L3 5v6c0 5.55 3.84 10.73 9 12c5.16-1.27 9-6.45 9-12V5z"/>
  </symbol>

  <symbol id="coin-circle" viewBox="0 0 32 32">
    <path fill="currentColor" fill-rule="evenodd" d="M16 32C7.163 32 0 24.837 0 16S7.163 0 16 0s16 7.163 16 16s-7.163 16-16 16m6.5-12.846c0-2.523-1.576-3.948-5.263-4.836v-4.44c1.14.234 2.231.725 3.298 1.496l1.359-2.196a9.5 9.5 0 0 0-4.56-1.776V6h-2.11v1.355c-3.032.234-5.093 1.963-5.093 4.486c0 2.64 1.649 3.925 5.19 4.813v4.58c-1.577-.234-2.886-.935-4.269-2.01L9.5 21.35a11.5 11.5 0 0 0 5.724 2.314V26h2.11v-2.313c3.08-.257 5.166-1.963 5.166-4.533m-7.18-5.327c-1.867-.537-2.327-1.168-2.327-2.15c0-1.027.8-1.845 2.328-1.962zm4.318 5.49c0 1.122-.873 1.893-2.401 2.01v-4.229c1.892.538 2.401 1.168 2.401 2.22z" clip-rule="evenodd"/>
  </symbol>

  <symbol id="shield-circle-check" viewBox="0 0 24 24">
    <path fill="currentColor" d="M24 2a2 2 0 0 0-.58-1.43A2 2 0 0 0 22 0H2A1.9 1.9 0 0 0 .58.59A1.93 1.93 0 0 0 0 2v7.31A15.13 15.13 0 0 0 11.86 24a.7.7 0 0 0 .2 0a.7.7 0 0 0 .2 0A15.13 15.13 0 0 0 24 9.2ZM12 18a7.25 7.25 0 0 1 0-14.5a1 1 0 0 1 0 2a5.25 5.25 0 1 0 5.17 6.19a1 1 0 0 1 1.16-.8a1 1 0 0 1 .8 1.16A7.23 7.23 0 0 1 12 18m7-12.65a1 1 0 0 1 0 1.41l-5.7 5.7a1.79 1.79 0 0 1-2.52 0L9 10.67a1 1 0 0 1 0-1.42a1 1 0 0 1 1.41 0l1.29 1.29a.51.51 0 0 0 .7 0l5.19-5.19a1 1 0 0 1 1.41 0"/>
  </symbol>

  <symbol id="piggy-bank" viewBox="0 0 48 48">
    <path fill="currentColor" fill-rule="evenodd" d="M32 1.5q-.732 0-1.395.014c-4.427.088-7.808 2.981-8.804 6.986q-2.241.004-4.16.057c-4.128.113-7.722 1.564-10.463 3.943h-.035C5.201 12.5 3.5 10.864 3.5 8.963s1.701-3.537 3.643-3.537h.029c2.044.01 2.328.996 2.328 1.247a1.5 1.5 0 0 0 3 0c0-2.495-2.285-4.247-5.357-4.247h-.037C3.629 2.446.5 5.314.5 8.963c0 2.816 1.863 5.166 4.311 6.102c-2.094 2.841-3.294 6.43-3.31 10.39a131 131 0 0 0 0 1.09c.016 3.903 1.179 7.462 3.246 10.304a121 121 0 0 0-1.34 3.096c-.733 1.758-.265 3.849 1.324 5.05c.434.328.93.68 1.378.937c.457.262 1.028.517 1.543.729c1.816.75 3.832.12 4.985-1.366c.486-.627 1.074-1.397 1.702-2.246q1.591.346 3.302.394c1.338.037 2.788.057 4.359.057s3.021-.02 4.359-.057a18 18 0 0 0 3.302-.394c.628.85 1.216 1.62 1.702 2.246c1.153 1.486 3.169 2.115 4.985 1.366a14 14 0 0 0 1.544-.73c.448-.256.943-.608 1.377-.936c1.59-1.201 2.057-3.292 1.325-5.05c-.36-.86-.82-1.938-1.341-3.096a16.6 16.6 0 0 0 2.28-4.413q.466.034.918.051c2.13.076 3.764-1.55 3.916-3.564c.074-.971.133-2.267.133-3.923s-.06-2.952-.133-3.923c-.152-2.015-1.786-3.64-3.916-3.564c-.554.02-1.128.061-1.711.12c-1.383-2.85-3.528-5.203-6.24-6.801c-.01-2.99-.262-5.039-.53-6.376a13 13 0 0 0-.39-1.524a6 6 0 0 0-.223-.572l-.008-.017l-.004-.007l-.002-.004v-.001l-.001-.002A1.5 1.5 0 0 0 32 1.5m-1 14.75c.966 0 1.75.784 1.75 1.75v1a1.75 1.75 0 1 1-3.5 0v-1c0-.966.784-1.75 1.75-1.75m-11.547-1a1.5 1.5 0 0 0-.037-3q-.768.01-1.475.028c-3.308.085-6.192 1.332-8.254 3.405a1.5 1.5 0 1 0 2.126 2.116c1.485-1.493 3.62-2.455 6.206-2.522q.685-.018 1.434-.027" clip-rule="evenodd"/>
  </symbol>

  <symbol id="user-circle" viewBox="0 0 24 24">
    <path fill="currentColor" d="M12 22q-2.075 0-3.9-.788t-3.175-2.137T2.788 15.9T2 12t.788-3.9t2.137-3.175T8.1 2.788T12 2t3.9.788t3.175 2.137T21.213 8.1T22 12t-.788 3.9t-2.137 3.175t-3.175 2.138T12 22m-2.5-8.5q1.45 0 2.475-1.025T13 10t-1.025-2.475T9.5 6.5T7.025 7.525T6 10t1.025 2.475T9.5 13.5m7 1q1.05 0 1.775-.725T19 12t-.725-1.775T16.5 9.5t-1.775.725T14 12t.725 1.775t1.775.725M12 20q2.125 0 3.875-1t2.825-2.65q-.525-.15-1.075-.25T16.5 16q-1.325 0-3.2.775t-3 3.05q.425.1.85.138T12 20m-3.175-.65q.875-1.8 1.988-2.675T12.5 15.5q-.725-.225-1.463-.362T9.5 15q-1.125 0-2.225.275t-2.125.775q.65 1.075 1.588 1.938t2.087 1.362"/>
  </symbol>

  <symbol id="timer-check" viewBox="0 0 24 24">
    <g fill="none" stroke="currentColor" stroke-linecap="round" stroke-linejoin="round" stroke-width="2">
      <path d="M12 15h2a1 1 0 0 0 1-1v-1a1 1 0 0 0-1-1h-2V9h3M9 9v6m-6-3v.01M12 21v.01M7.5 4.2v.01m9 15.59v.01m-9-.01v.01M4.2 16.5v.01m15.6-.01v.01M4.2 7.5v.01M21 12a9 9 0 0 0-9-9"/>
    </g>
  </symbol>

  <symbol id="percentage-star" viewBox="0 0 24 24">
    <path fill="currentColor" d="M9.405 2.897a4 4 0 0 1 5.02-.136l.17.136l.376.32a2 2 0 0 0 .96.45l.178.022l.493.04a4 4 0 0 1 3.648 3.468l.021.2l.04.494a2 2 0 0 0 .36.996l.11.142l.322.376a4 4 0 0 1 .136 5.02l-.136.17l-.321.376a2 2 0 0 0-.45.96l-.022.178l-.039.493a4 4 0 0 1-3.468 3.648l-.201.021l-.493.04a2 2 0 0 0-.996.36l-.142.111l-.377.32a4 4 0 0 1-5.02.137l-.169-.136l-.376-.321a2 2 0 0 0-.96-.45l-.178-.021l-.493-.04a4 4 0 0 1-3.648-3.468l-.021-.2l-.04-.494a2 2 0 0 0-.36-.996l-.111-.142l-.321-.377a4 4 0 0 1-.136-5.02l.136-.169l.32-.376a2 2 0 0 0 .45-.96l.022-.178l.04-.493A4 4 0 0 1 7.197 3.75l.2-.021l.494-.04a2 2 0 0 0 .996-.36l.142-.111zM14.5 13a1.5 1.5 0 1 0 0 3a1.5 1.5 0 0 0 0-3m-.207-4.707l-6 6a1 1 0 1 0 1.414 1.414l6-6a1 1 0 0 0-1.414-1.414M9.5 8a1.5 1.5 0 1 0 0 3a1.5 1.5 0 0 0 0-3"/>
  </symbol>

  <symbol id="link-diagonal" viewBox="0 0 24 24">
    <g fill="none" stroke="currentColor" stroke-linecap="round" stroke-linejoin="round" stroke-width="2">
      <path d="m9.172 14.829l5.657-5.657M7.05 11.293l-1.414 1.414a4 4 0 1 0 5.657 5.657l1.412-1.414m-1.413-9.9l1.414-1.414a4 4 0 1 1 5.657 5.657l-1.414 1.414"/>
    </g>
  </symbol>

  <symbol id="calculator" viewBox="0 0 24 24">
    <g fill="none" stroke="currentColor" stroke-linecap="round" stroke-linejoin="round" stroke-width="1.5">
      <path d="M16 2.75H8a4 4 0 0 0-4 4v10.5a4 4 0 0 0 4 4h8a4 4 0 0 0 4-4V6.75a4 4 0 0 0-4-4"/>
      <path d="M16.083 6H7.917C7.411 6 7 6.448 7 7v2c0 .552.41 1 .917 1h8.166c.506 0 .917-.448.917-1V7c0-.552-.41-1-.917-1M7.5 13h1m3 0h1m3 0h1m-9 2.5h1m3 0h1m3 0h1m-9 2.5h1m3 0h1m3 0h1"/>
    </g>
  </symbol>

  <!-- Blog Icons -->
  <symbol id="clock" viewBox="0 0 24 24">
    <path fill="none" stroke="currentColor" stroke-linecap="round" stroke-linejoin="round" stroke-width="2" d="M12 8v4l3 3m6-3a9 9 0 1 1-18 0a9 9 0 0 1 18 0z"/>
  </symbol>

  <symbol id="chevron-right" viewBox="0 0 24 24">
    <path fill="none" stroke="currentColor" stroke-linecap="round" stroke-linejoin="round" stroke-width="2" d="m9 5l7 7l-7 7"/>
  </symbol>

  <symbol id="chevron-left" viewBox="0 0 24 24">
    <path fill="none" stroke="currentColor" stroke-linecap="round" stroke-linejoin="round" stroke-width="2" d="m15 19l-7-7l7-7"/>
  </symbol>

  <symbol id="search" viewBox="0 0 24 24">
    <path fill="none" stroke="currentColor" stroke-linecap="round" stroke-linejoin="round" stroke-width="2" d="m21 21l-6-6m2-5a7 7 0 1 1-14 0a7 7 0 0 1 14 0z"/>
  </symbol>

  <symbol id="calendar" viewBox="0 0 24 24">
    <path fill="none" stroke="currentColor" stroke-linecap="round" stroke-linejoin="round" stroke-width="2" d="M8 7V3m8 4V3m-9 8h10M5 21h14a2 2 0 0 0 2-2V7a2 2 0 0 0-2-2H5a2 2 0 0 0-2 2v12a2 2 0 0 0 2 2z"/>
  </symbol>

  <symbol id="tag" viewBox="0 0 24 24">
    <path fill="none" stroke="currentColor" stroke-linecap="round" stroke-linejoin="round" stroke-width="2" d="M7 7h.01M7 3h5a1.99 1.99 0 0 1 1.414.586l7 7a2 2 0 0 1 0 2.828l-7 7a2 2 0 0 1-2.828 0l-7-7A2 2 0 0 1 3 12V7a4 4 0 0 1 4-4z"/>
  </symbol>

  <symbol id="arrow-right" viewBox="0 0 24 24">
    <path fill="none" stroke="currentColor" stroke-linecap="round" stroke-linejoin="round" stroke-width="2" d="M5 12h14m-7-7l7 7l-7 7"/>
  </symbol>

  <symbol id="empty-face" viewBox="0 0 24 24">
    <path fill="none" stroke="currentColor" stroke-linecap="round" stroke-linejoin="round" stroke-width="1.5" d="M9.172 16.172a4 4 0 0 1 5.656 0M9 10h.01M15 10h.01M21 12a9 9 0 1 1-18 0a9 9 0 0 1 18 0z"/>
  </symbol>

  <symbol id="pin" viewBox="0 0 24 24">
    <path fill="currentColor" d="M16 12V4h1V2H7v2h1v8l-2 2v2h5.2v6h1.6v-6H18v-2l-2-2z"/>
  </symbol>

  <symbol id="sort" viewBox="0 0 24 24">
    <path fill="none" stroke="currentColor" stroke-linecap="round" stroke-linejoin="round" stroke-width="2" d="M3 6h18M6 12h12m-9 6h6"/>
  </symbol>

  <symbol id="filter" viewBox="0 0 24 24">
    <path fill="none" stroke="currentColor" stroke-linecap="round" stroke-linejoin="round" stroke-width="2" d="M3 4a1 1 0 0 1 1-1h16a1 1 0 0 1 1 1v2.586a1 1 0 0 1-.293.707l-6.414 6.414a1 1 0 0 0-.293.707V17l-4 4v-6.586a1 1 0 0 0-.293-.707L3.293 7.293A1 1 0 0 1 3 6.586V4z"/>
  </symbol>

  <symbol id="currency-dollar" viewBox="0 0 24 24">
    <path fill="currentColor" d="M11.25 7.847c-.936.256-1.5.975-1.5 1.653s.564 1.397 1.5 1.652zm1.5 5.001v3.304c.936-.255 1.5-.974 1.5-1.652s-.564-1.397-1.5-1.652"/>
    <path fill="currentColor" fill-rule="evenodd" d="M22 12c0 5.523-4.477 10-10 10S2 17.523 2 12S6.477 2 12 2s10 4.477 10 10M12 5.25a.75.75 0 0 1 .75.75v.317c1.63.292 3 1.517 3 3.183a.75.75 0 0 1-1.5 0c0-.678-.564-1.397-1.5-1.653v3.47c1.63.292 3 1.517 3 3.183s-1.37 2.891-3 3.183V18a.75.75 0 0 1-1.5 0v-.317c-1.63-.292-3-1.517-3-3.183a.75.75 0 0 1 1.5 0c0 .678 .564 1.397 1.5 1.652v-3.469c-1.63-.292-3-1.517-3-3.183s1.37-2.891 3-3.183V6a.75.75 0 0 1 .75-.75" clip-rule="evenodd"/>
  </symbol>

  <symbol id="zap" viewBox="0 0 24 24">
    <path fill="currentColor" d="M20.98 11.802a1 1 0 0 0-.738-.771l-6.86-1.716l2.537-5.921a1 1 0 0 0-.317-1.192a.996.996 0 0 0-1.234.024l-11 9a1 1 0 0 0 .39 1.744l6.719 1.681l-3.345 5.854A1 1 0 0 0 8 22a1 1 0 0 0 .6-.2l12-9a1 1 0 0 0 .38-.998"/>
  </symbol>

  <symbol id="infinite" viewBox="0 0 512 512">
    <path fill="currentColor" d="M382 136c-40.87 0-73.46 20.53-93.6 37.76l-.71.61l-11.47 12.47l25.32 41.61l18.74-18.79C339.89 193.1 361.78 184 382 184c40.8 0 74 32.3 74 72s-33.2 72-74 72c-62 0-104.14-81.95-104.56-82.78C275 240.29 221.56 136 130 136C62.73 136 8 189.83 8 256s54.73 120 122 120c32.95 0 65.38-13.11 93.79-37.92l.61-.54l11.38-12.38l-25.33-41.61l-18.83 18.88C172 319.4 151.26 328 130 328c-40.8 0-74-32.3-74-72s33.2-72 74-72c62 0 104.14 81.95 104.56 82.78C237 271.71 290.44 376 382 376c67.27 0 122-53.83 122-120s-54.73-120-122-120"/>
  </symbol>
</svg>